<?xml version="1.0" encoding="UTF-8"?>
<!DOCTYPE svg PUBLIC "-//W3C//DTD SVG 1.1//EN" "http://www.w3.org/Graphics/SVG/1.1/DTD/svg11.dtd">
<svg version="1.1" xmlns="http://www.w3.org/2000/svg" xmlns:xlink="http://www.w3.org/1999/xlink" x="0" y="0" width="185.728" height="181" viewBox="0, 0, 185.728, 181">
  <g id="Layer_1" transform="translate(-164.558, -95.005)">
    <path d="M257.246,133.071 L223.293,228.49 L198.511,228.49 L164.558,133.071 L187.974,133.071 L210.805,197.855 L233.83,133.071 z" fill="#000000"/>
    <path d="M304.923,203.109 L298.093,227.695 Q292.239,230.037 285.214,230.232 Q274.092,230.232 267.75,221.744 Q261.408,213.256 261.408,200.767 L261.408,154.911 L245.797,154.911 L245.797,133.056 L261.408,133.056 L261.408,106.908 L285.214,95.005 L285.214,133.056 L304.923,133.056 L304.923,154.911 L285.214,154.911 L285.214,199.596 Q285.8,208.572 293.605,208.377 Q299.069,208.768 304.923,203.109 z" fill="#000000"/>
    <path d="M350.286,107.021 Q350.286,112.094 346.774,115.606 Q343.261,119.119 338.578,119.119 Q333.505,119.119 330.187,115.802 Q326.87,112.484 326.87,107.021 Q326.87,102.337 330.285,99.02 Q333.7,95.703 338.578,95.703 Q343.261,95.703 346.774,99.02 Q350.286,102.337 350.286,107.021 z M350.286,133.168 L350.286,228.588 Q347.749,259.614 320.626,276.005 L309.893,256.882 Q324.724,246.736 326.87,228.588 L326.87,133.168 z" fill="#000000"/>
    <path d="M283.615,230.023 C283.615,230.023 318.205,235.859 317.635,211.569 C317.373,200.398 312.987,174.509 312.987,174.509 C312.987,174.509 312.57,186.767 301.471,194.166 C300.308,194.941 306.593,194.166 306.593,194.166 C306.593,194.166 311.411,203.593 295.403,208.836" fill="#000000"/>
  </g>
</svg>
